<?xml version="1.0" encoding="utf-8"?>
<!-- Generator: Adobe Illustrator 27.2.0, SVG Export Plug-In . SVG Version: 6.00 Build 0)  -->
<svg version="1.1" id="Layer_1" xmlns="http://www.w3.org/2000/svg" xmlns:xlink="http://www.w3.org/1999/xlink" x="0px" y="0px"
	 viewBox="0 0 250 250" style="enable-background:new 0 0 250 250;" xml:space="preserve">
<style type="text/css">
	.st0{fill:#1B1B1F;}
</style>
<path class="st0" d="M219.2,51L140.3,4.2c-9.3-5.5-21-5.5-30.3,0L31,51c-9.5,5.7-15.4,16-15.4,27.1v93.7
	c-0.1,11.1,5.7,21.4,15.2,27.1l78.9,46.9c9.3,5.5,21,5.5,30.3,0l78.9-46.9c9.5-5.7,15.3-16,15.2-27.1V78.1
	C234.4,67.1,228.7,56.8,219.2,51z M158.1,197.4v6.7c0,0.8-0.4,1.6-1.2,2.1l-4,2.3c-0.6,0.3-1.2,0-1.2-0.9v-6.6
	c-2.8,1.4-6.1,1.7-9.1,0.9c-0.5-0.3-0.7-1-0.4-1.5l1.4-6.1c0.1-0.5,0.4-1,0.8-1.3c0.1-0.1,0.2-0.2,0.4-0.3c0.2-0.1,0.4-0.1,0.6,0
	c2.8,0.7,5.8,0.4,8.3-1c3.6-1.8,6-5.4,6.2-9.5c0-3.4-1.9-4.9-6.4-4.9c-5.7,0-11-1.1-11.2-9.6c0.1-7.3,3.5-14.2,9.3-18.7v-6.8
	c0-0.9,0.4-1.6,1.2-2.1l3.9-2.5c0.6-0.3,1.2,0,1.2,0.9v6.8c2.4-1.1,5-1.4,7.6-0.9c0.6,0.3,0.8,1,0.5,1.6l-1.4,6
	c-0.1,0.5-0.4,0.9-0.7,1.2c-0.1,0.1-0.2,0.2-0.4,0.3c-0.2,0.1-0.4,0.1-0.6,0c-2.5-0.5-5.1-0.1-7.3,1.2c-3.3,1.4-5.4,4.6-5.5,8.1
	c0,3.1,1.6,4,7.1,4.1c7.3,0,10.4,3.3,10.5,10.6C167.6,185.3,164.1,192.5,158.1,197.4z M199.5,186c0.1,0.6-0.1,1.2-0.6,1.5l-20,12.1
	c-0.2,0.2-0.6,0.2-0.8-0.1c-0.1-0.1-0.2-0.3-0.1-0.5v-5.2c0-0.6,0.4-1.1,0.9-1.3l19.7-11.8c0.2-0.2,0.6-0.2,0.8,0.1
	c0.1,0.1,0.2,0.3,0.1,0.5V186z M213.2,70.8l-74.7,46.1c-9.3,5.5-16.2,11.5-16.2,22.8v92c0,6.7,2.8,11,6.9,12.3
	c-1.4,0.3-2.7,0.4-4.1,0.4c-4.4,0-8.7-1.2-12.5-3.4l-78.9-46.9c-7.8-4.7-12.5-13.2-12.5-22.3V78.1c0-9.1,4.7-17.6,12.5-22.3L112.7,9
	c7.6-4.5,17.2-4.5,24.8,0l78.9,46.9c6.5,3.9,10.9,10.5,12.1,18.1C226,68.3,220.1,66.8,213.2,70.8L213.2,70.8z"/>
</svg>
