<?xml version="1.0" encoding="utf-8"?>
<!-- Generator: Adobe Illustrator 27.2.0, SVG Export Plug-In . SVG Version: 6.00 Build 0)  -->
<svg version="1.1" id="Layer_1" xmlns="http://www.w3.org/2000/svg" xmlns:xlink="http://www.w3.org/1999/xlink" x="0px" y="0px"
	 viewBox="0 0 250 250" style="enable-background:new 0 0 250 250;" xml:space="preserve">
<style type="text/css">
	.st0{fill:#659AD2;}
	.st1{fill:#004482;}
	.st2{fill:#00599C;}
	.st3{fill:#FFFFFF;}
</style>
<path class="st0" d="M236.2,73.5c0-4.2-0.9-7.9-2.7-11.1c-1.8-3.1-4.5-5.8-8-7.8c-29.6-17.1-59.3-34.1-88.9-51.2
	c-8-4.6-15.7-4.4-23.6,0.2c-11.8,7-70.8,40.8-88.4,50.9c-7.2,4.2-10.8,10.6-10.8,18.9c0,34.3,0,68.7,0,103c0,4.1,0.9,7.8,2.6,10.9
	c1.8,3.2,4.5,5.9,8.2,8.1c17.6,10.2,76.6,44,88.4,50.9c7.9,4.7,15.7,4.8,23.6,0.2c29.6-17.1,59.2-34.1,88.9-51.2
	c3.7-2.1,6.4-4.8,8.2-8.1c1.7-3.1,2.6-6.8,2.6-10.9C236.2,176.5,236.2,107.8,236.2,73.5"/>
<path class="st1" d="M125.3,124.7l-109,62.7c1.8,3.2,4.5,5.9,8.2,8.1c17.6,10.2,76.6,44,88.4,50.9
	c7.9,4.7,15.7,4.8,23.6,0.2c29.6-17.1,59.2-34.1,88.9-51.2c3.7-2.1,6.4-4.8,8.2-8.1L125.3,124.7"/>
<path class="st2" d="M236.2,73.5c0-4.2-0.9-7.9-2.7-11.1l-108.1,62.3l108.3,62.7c1.7-3.1,2.6-6.8,2.6-10.9
	C236.2,176.5,236.2,107.8,236.2,73.5"/>
<path class="st3" d="M157.1,143c-6.3,11.2-18.3,18.7-32.1,18.7c-13.7,0-25.6-7.5-31.9-18.5c-3.2-5.6-4.9-11.8-4.9-18.2
	c0-20.3,16.5-36.8,36.8-36.8c13.6,0,25.4,7.4,31.8,18.3L189,88c-12.8-22.1-36.6-36.9-64-36.9c-40.8,0-73.9,33.1-73.9,73.9
	c0,13.4,3.6,25.9,9.8,36.8c12.7,22.2,36.7,37.1,64.1,37.1c27.5,0,51.4-15,64.2-37.2L157.1,143"/>
</svg>
