<?xml version="1.0" encoding="utf-8"?>
<!-- Generator: Adobe Illustrator 27.2.0, SVG Export Plug-In . SVG Version: 6.00 Build 0)  -->
<svg version="1.1" id="Layer_1" xmlns="http://www.w3.org/2000/svg" xmlns:xlink="http://www.w3.org/1999/xlink" x="0px" y="0px"
	 viewBox="0 0 250 250" style="enable-background:new 0 0 250 250;" xml:space="preserve">
<style type="text/css">
	.st0{fill:url(#SVGID_1);}
	.st1{fill:url(#SVGID_2);}
	.st2{fill:url(#SVGID_3);}
	.st3{fill:url(#SVGID_4);}
	.st4{fill:url(#SVGID_5);}
	.st5{fill:url(#SVGID_6);}
	.st6{fill:url(#SVGID_7);}
	.st7{fill:#330A4C;fill-opacity:0.316;}
	.st8{fill:#FFFFFF;}
	.st9{fill:#EDEDED;fill-opacity:0.603;}
</style>
<linearGradient id="SVGID_1" gradientUnits="userSpaceOnUse" x1="-208.0055" y1="-550.8629" x2="-209.8696" y2="-627.3305" gradientTransform="matrix(1.9588 0 0 -3.0202 534.5537 -1644.6958)">
	<stop  offset="0" style="stop-color:#D9D8DC"/>
	<stop  offset="1" style="stop-color:#FFFFFF;stop-opacity:0.385"/>
</linearGradient>
<path class="st0" d="M132,0.6C113.8,7.1,96.3,25.9,79.4,57c-25.4,46.7-58.1,113.1-13,165.7c20.9,24.3,55.3,38.7,100.5,15.9
	c36.3-18.3,46.4-70.7,33.4-95.3c-26.9-50.8-54.2-63.3-61.5-94.8C133.9,27.5,131.6,11.5,132,0.6L132,0.6z"/>
<linearGradient id="SVGID_2" gradientUnits="userSpaceOnUse" x1="-271.9968" y1="-498.8535" x2="-287.2481" y2="-565.3254" gradientTransform="matrix(1.7247 0 0 -3.4301 593.0754 -1695.9305)">
	<stop  offset="0" style="stop-color:#8D67AF;stop-opacity:0.672"/>
	<stop  offset="1" style="stop-color:#9F8DAF"/>
</linearGradient>
<path class="st1" d="M132,0c-18.3,6.5-35.8,25.3-52.6,56.4C54.1,103,21.3,169.5,66.3,222c20.9,24.3,54.9,32.2,73.7,17.7c12.3-9.4,20.7-18.4,25.5-37.2
	c5.4-21,1.2-49.3-1.6-62.3c-3.6-16.5-4.7-34.5-3.5-54.2c-0.3-0.4-0.7-0.8-1-1.2c-9.8-12-17.4-22.5-20.8-37
	C133.9,26.9,131.6,10.9,132,0L132,0z"/>
<linearGradient id="SVGID_3" gradientUnits="userSpaceOnUse" x1="-229.1234" y1="-547.8946" x2="-229.1234" y2="-597.916" gradientTransform="matrix(1.8526 0 0 -3.1935 561.0961 -1666.3677)">
	<stop  offset="0" style="stop-color:#26053D;stop-opacity:0.762"/>
	<stop  offset="1" style="stop-color:#B7B4B4;stop-opacity:0.278"/>
</linearGradient>
<path class="st2" d="M116.8,8.2c-17,13.4-29.6,36-37.9,67.6c-12.4,47.5-13.8,91.2-9.4,116.7c8.5,49.4,52.5,68.1,97.7,45.1c27.8-14.1,39.4-44.5,38.8-77.4
	c-0.6-34.1-66.5-72.8-78.2-101.2C120,40,116.3,23.1,116.8,8.2L116.8,8.2z"/>
<linearGradient id="SVGID_4" gradientUnits="userSpaceOnUse" x1="-89.4269" y1="-764.1793" x2="-66.2911" y2="-810.7377" gradientTransform="matrix(2.7906 0 0 -2.1201 326.5941 -1532.1831)">
	<stop  offset="0" style="stop-color:#91739F;stop-opacity:0.46"/>
	<stop  offset="1" style="stop-color:#32054F;stop-opacity:0.54"/>
</linearGradient>
<path class="st3" d="M159.9,97.2c20.4,26.2,24.8,44.4,13.3,54.6c-17.2,15.4-59.4,25.4-85.7,6.8c-17.5-12.4-24.1-39-19.9-79.9
	c-7.1,14.9-13.3,30.2-18.3,45.8c-5,15.5-6.5,31.7-4.4,48.6c6.3,12.7,21.5,21.1,45.6,25.4c36.2,6.4,70.5,3.2,93.6-8.4
	c15.3-7.7,22.6-15.4,21.8-23.1c0.6-11.3-2.9-22.1-10.5-32.3C188,124.5,176.1,112,159.9,97.2L159.9,97.2z"/>
<linearGradient id="SVGID_5" gradientUnits="userSpaceOnUse" x1="-149.2202" y1="-665.9545" x2="-190.3397" y2="-622.0256" gradientTransform="matrix(2.1421 0 0 -2.7618 488.718 -1612.3955)">
	<stop  offset="0" style="stop-color:#463D49;stop-opacity:0.331"/>
	<stop  offset="1" style="stop-color:#340A50;stop-opacity:0.821"/>
</linearGradient>
<path class="st4" d="M80.3,71.1c-0.2,18.9,4.7,36.8,14.6,53.9c14.8,25.5,32.1,50.8,58,71.7c17.3,13.9,31.1,18.4,41.4,13.5c-8.5,15.2-17.5,22.6-27.1,22.3
	c-14.3-0.5-31.8-6.7-59.8-40.4c-18.7-22.4-31.4-43.6-38.3-63.7c1.1-7.9,2.2-15.8,3.5-23.7C73.8,96.8,76.3,85.6,80.3,71.1L80.3,71.1z"/>
<linearGradient id="SVGID_6" gradientUnits="userSpaceOnUse" x1="-301.7455" y1="-489.8455" x2="-313.9825" y2="-532.8461" gradientTransform="matrix(1.6004 0 0 -3.6968 624.1486 -1729.269)">
	<stop  offset="0" style="stop-color:#715383;stop-opacity:0.145"/>
	<stop  offset="1" style="stop-color:#F4F4F4;stop-opacity:0.234"/>
</linearGradient>
<path class="st5" d="M124.1,97c1.6,15.4,7.6,40,0,56.4s-42.5,46-32.9,72.1c9.7,26.1,33.2,20.2,47.9,8.2c14.8-12,22.7-31.6,24.4-45.3
	c1.8-13.7-4.2-40.2-6.1-63.2c-1.3-15.3-0.4-28.5,2.6-39.4l-4.5-5.7l-26.6-7.9C124.6,78.4,123,86.7,124.1,97L124.1,97z"/>
<linearGradient id="SVGID_7" gradientUnits="userSpaceOnUse" x1="-377.8868" y1="-447.7761" x2="-416.9723" y2="-440.4211" gradientTransform="matrix(1.3853 0 0 -4.2705 677.913 -1800.9865)">
	<stop  offset="0" style="stop-color:#A5A1A8;stop-opacity:0.356"/>
	<stop  offset="1" style="stop-color:#370C50;stop-opacity:0.582"/>
</linearGradient>
<path class="st6" d="M133.6,20.8c-8.6,3.6-16.8,10.9-24.5,21.6C97.5,58.6,91.6,68.3,96,100.3c2.9,21.4,5,41,6.2,59L139.5,51c-1.2-5-2.4-9.9-3.4-15
	C135.1,31,134.2,25.9,133.6,20.8z"/>
<path class="st7" d="M139.4,50.8c-9.5,5.5-16.8,16.8-22,33.9c-5.2,17.1-10,41-14.3,71.8c5.8-19.5,9.6-33.7,11.5-42.5
	c2.8-13.1,3.8-31.7,11.3-44.4C130.9,61.3,135.4,55,139.4,50.8L139.4,50.8z"/>
<path class="st8" d="M95.6,234.1c15.6,2.2,23.7,4.2,24.4,5.9c1.1,2.6-2,5-10.6,3.4C103.7,242.4,99.1,239.3,95.6,234.1z"/>
<path class="st9" d="M103.4,20.8c-8.6,10.2-16,21.1-22.3,32.5c-6.3,11.5-10.8,20-13.5,25.7c-0.8,4.2-1.2,10.4-1.2,18.6
	c0,8.2,0.7,17.3,2.1,27.4c1.2-19.5,5-38.8,11.3-57.3C86.2,49.2,94,33.5,103.4,20.8z"/>
</svg>
