<?xml version="1.0" encoding="utf-8"?>
<!-- Generator: Adobe Illustrator 27.2.0, SVG Export Plug-In . SVG Version: 6.00 Build 0)  -->
<svg version="1.1" id="Layer_1" xmlns="http://www.w3.org/2000/svg" xmlns:xlink="http://www.w3.org/1999/xlink" x="0px" y="0px"
	 viewBox="0 0 250 250" style="enable-background:new 0 0 250 250;" xml:space="preserve">
<style type="text/css">
	.st0{fill:#FAC036;}
	.st1{fill:#E48C15;}
	.st2{fill:none;stroke:#444444;stroke-width:4;stroke-linecap:round;stroke-miterlimit:10;}
	.hand {
		animation: wave 0.6s;
		animation-iteration-count: 6;
		transform-origin: bottom right;
	}
	@keyframes wave {
		0% {transform: rotate(0deg);}
		50% {transform: rotate(-10deg);}
		100% {transform: rotate(0deg);}
	}
</style>
<g class="hand">
	<g>
		<path class="st0" d="M85.3,141.1c-2,1.9-4-0.3-4-0.3s-33.1-35-35.2-36.6c-3-2.2-9.5-5.6-15.9,1c-2.7,2.7-7.1,8.9,1.1,18.9
			c1.8,2.2,53.2,56.4,56.3,59.4c0,0,23.8,23.1,38.2,31.9c4,2.4,8.5,4.9,13.7,6.7c5.2,1.8,11.1,3,17.4,3c6.3,0.1,12.6-1.1,18.8-3.4
			c6-2.2,11.8-5.5,16.9-9.3c1.3-1,2.5-2,3.7-3l3.5-2.9c2.4-2,4.6-4.2,6.8-6.3c4.4-4.3,8.2-8.9,11.8-13.7c3.4-4.7,6.4-9.7,8.7-14.6
			c2.3-4.9,4-9.8,4.9-14.5c1-4.6,1.3-9,1.2-12.9c0-3.8-0.8-7.1-1.4-9.7c-0.8-2.6-1.4-4.5-2.1-5.8c-0.5-1.3-0.9-2-0.9-2l0,0
			c-0.8-2.3-1.6-4.5-2.3-6.5c-2-5.6-4.3-11.9-6.6-18.4c-1-2.7-1.4-4-1.4-4l0,0c-8.7-23.5-18-47.8-18-47.8c-1.4-4.3-6.6-5.7-10.4-3
			c-11,7.9-14.4,19.6-10.6,31.9l10,27.4c1.4,3.1-2.5,6.6-5.1,4.5c-8.2-6.7-25.6-25.1-25.6-25.1c-7.8-7.5-51.6-52.4-54.4-55.1
			c-5.9-5.5-13.3-8.4-19-4.2c-5.8,4.3-7.4,10.9-1.8,18c1.5,2,45.8,48.7,45.8,48.7c2.5,2.7-0.4,6.5-3.3,3.8c0,0-55.1-57.4-57.5-60.2
			c-5.6-6.2-14.7-7.5-20-2.4c-5.3,4.9-5.2,13,0.7,19.4c1.9,2,40.6,43,56.1,59.7c1,1.1,1.9,2.6,0.3,4.1c0,0-1.5,1.6-3.6-0.4
			c-4.2-4.5-46.4-48.4-48.7-50.8c-5.4-5.5-12.6-8-18.4-2.7c-5.3,4.8-6.2,13.3-0.1,19.2l51,54C85.6,137.3,87.2,139.3,85.3,141.1z"/>
		<path class="st1" d="M168.3,96.1l4.3,4.6c0,0-24.6,23.8-7.8,60.4c0,0,2.2,4.6-0.7,5.4c0,0-2.5,1.4-5.4-5.7 C158.7,160.6,141.7,126,168.3,96.1z"/>
	</g>
	<path class="st2" d="M128.6,17c0,0,10.3,1.5,20,11.9c9.6,10.3,14.1,23.5,14.1,23.5"/>
	<path class="st2" d="M154,5c0,0,8.7,4.4,15.4,15.2s8.4,23.3,8.4,23.3"/>
	<path class="st2" d="M79.3,196.8c0,0-10.4,0.7-22.1-7.4s-18.8-20-18.8-20"/>
	<path class="st2" d="M71.8,214.4c0,0-9.7,0.4-20.9-5.7c-11.1-6.2-18.7-16.3-18.7-16.3"/>
</g>
</svg>
