<?xml version="1.0" encoding="utf-8"?>
<!-- Generator: Adobe Illustrator 27.2.0, SVG Export Plug-In . SVG Version: 6.00 Build 0)  -->
<svg version="1.1" id="Layer_1" xmlns="http://www.w3.org/2000/svg" xmlns:xlink="http://www.w3.org/1999/xlink" x="0px" y="0px"
	 viewBox="0 0 250 250" style="enable-background:new 0 0 250 250;" xml:space="preserve">
<style type="text/css">
	.st0{fill:#3174B9;}
	.st1{fill:#CA3132;}
</style>
<path class="st0" d="M92.2,193.3c0,0-9.5,5.6,6.8,7.4c19.8,2.3,29.9,1.9,51.8-2.2c0,0,5.7,3.6,13.8,6.7
	C115.6,226.3,53.7,204.1,92.2,193.3z M86.2,166c0,0-10.7,7.9,5.7,9.6c21.2,2.2,37.9,2.4,66.8-3.2c0,0,4,4.1,10.3,6.3
	C109.8,196,43.9,180,86.2,166z"/>
<path class="st1" d="M136.6,119.5c12.1,13.9-3.2,26.4-3.2,26.4s30.6-15.8,16.6-35.6c-13.1-18.5-23.2-27.6,31.3-59.2
	C181.3,51.1,95.7,72.4,136.6,119.5z"/>
<path class="st0" d="M201.4,213.6c0,0,7.1,5.8-7.8,10.3C165.3,232.5,76,235,51.2,224.3c-8.9-3.9,7.8-9.3,13.1-10.4
	c5.5-1.2,8.6-1,8.6-1c-9.9-7-64.1,13.7-27.5,19.7C145.1,248.7,227.2,225.3,201.4,213.6L201.4,213.6z M96.8,137.6
	c0,0-45.4,10.8-16.1,14.7c12.4,1.7,37.1,1.3,60.1-0.7c18.8-1.6,37.7-5,37.7-5s-6.6,2.8-11.4,6.1c-46.1,12.1-135.3,6.5-109.6-5.9
	C79.1,136.4,96.8,137.6,96.8,137.6L96.8,137.6z M178.3,183.2c46.9-24.4,25.2-47.8,10.1-44.6c-3.7,0.8-5.4,1.4-5.4,1.4s1.4-2.2,4-3.1
	c29.9-10.5,53,31-9.7,47.5C177.4,184.4,178.1,183.7,178.3,183.2z"/>
<path class="st1" d="M150,0c0,0,26,26-24.6,65.9c-40.6,32.1-9.3,50.3,0,71.2C101.7,115.8,84.3,97,95.9,79.4
	C113.1,53.7,160.5,41.3,150,0L150,0z"/>
<path class="st0" d="M101.4,249.2c45,2.9,114.2-1.6,115.8-22.9c0,0-3.1,8.1-37.2,14.5c-38.4,7.2-85.8,6.4-113.9,1.8
	C66,242.5,71.8,247.3,101.4,249.2z"/>
</svg>
