<?xml version="1.0" encoding="utf-8"?>
<!-- Generator: Adobe Illustrator 27.2.0, SVG Export Plug-In . SVG Version: 6.00 Build 0)  -->
<svg version="1.1" id="Layer_1" xmlns="http://www.w3.org/2000/svg" xmlns:xlink="http://www.w3.org/1999/xlink" x="0px" y="0px"
	 viewBox="0 0 250 250" style="enable-background:new 0 0 250 250;" xml:space="preserve">
<style type="text/css">
	.st0{fill:#F0DB4F;}
	.st1{fill:#323330;}
</style>
<path class="st0" d="M0,0h250v250H0V0z"/>
<path class="st1" d="M229.5,190.4c-1.8-11.4-9.3-21-31.3-29.9c-7.7-3.5-16.2-6-18.7-11.8c-0.9-3.4-1-5.3-0.5-7.3
	c1.6-6.6,9.6-8.7,15.8-6.8c4,1.4,7.9,4.5,10.2,9.4c10.8-7,10.8-6.9,18.3-11.7c-2.8-4.3-4.2-6.3-6-8.1c-6.5-7.2-15.3-11-29.5-10.7
	c-2.4,0.3-4.9,0.6-7.4,1c-7.1,1.8-13.8,5.5-17.7,10.5c-11.8,13.4-8.5,36.9,5.9,46.6c14.2,10.6,35,13.1,37.7,23
	c2.6,12.2-9,16.1-20.4,14.7c-8.5-1.8-13.2-6.1-18.3-13.9c-9.4,5.4-9.4,5.4-19,11c2.3,5,4.7,7.2,8.5,11.6
	c18.1,18.4,63.4,17.5,71.6-10.3C229.1,206.6,231.3,200.2,229.5,190.4z M135.9,114.9h-23.4c0,20.2-0.1,40.3-0.1,60.5
	c0,12.9,0.7,24.6-1.4,28.3c-3.4,7.1-12.3,6.2-16.3,4.8c-4.1-2-6.2-4.9-8.6-9c-0.7-1.2-1.2-2.1-1.3-2.1c-6.3,3.9-12.7,7.8-19,11.6
	c3.2,6.5,7.8,12.1,13.8,15.8c8.9,5.3,20.9,7,33.4,4.1c8.2-2.4,15.2-7.3,18.9-14.8c5.3-9.8,4.2-21.7,4.1-34.8
	C136,157.8,135.9,136.4,135.9,114.9L135.9,114.9z"/>
</svg>
