<?xml version="1.0" encoding="utf-8"?>
<!-- Generator: Adobe Illustrator 27.2.0, SVG Export Plug-In . SVG Version: 6.00 Build 0)  -->
<svg version="1.1" id="Layer_1" xmlns="http://www.w3.org/2000/svg" xmlns:xlink="http://www.w3.org/1999/xlink" x="0px" y="0px"
	 viewBox="0 0 250 250" style="enable-background:new 0 0 250 250;" xml:space="preserve">
<style type="text/css">
	.st0{fill:url(#SVGID_1);}
	.st1{fill:url(#SVGID_2);}
</style>
<linearGradient id="SVGID_1" gradientUnits="userSpaceOnUse" x1="374.8091" y1="-121.1562" x2="374.876" y2="-121.2225" gradientTransform="matrix(1849.2675 0 0 -1853.3917 -693098.875 -224526.2969)">
	<stop offset="0" style="stop-color:#387EB8"/>
	<stop offset="1" style="stop-color:#366994"/>
</linearGradient>
<path class="st0" d="M124.1,0.7c-63.5,0-59.5,27.5-59.5,27.5l0.1,28.5h60.6v8.6H40.6c0,0-40.6-4.6-40.6,59.4
	c0,64,35.4,61.8,35.4,61.8h21.2v-29.7c0,0-1.1-35.4,34.9-35.4h60.1c0,0,33.7,0.5,33.7-32.6V33.8C185.3,33.8,190.4,0.7,124.1,0.7z
	 M90.7,19.8c6,0,10.9,4.9,10.9,10.9c0,0,0,0,0,0c0,6-4.9,10.9-10.9,10.9c0,0,0,0,0,0c-6,0-10.9-4.9-10.9-10.9c0,0,0,0,0,0
	C79.8,24.7,84.7,19.8,90.7,19.8C90.7,19.8,90.7,19.8,90.7,19.8z"/>
<linearGradient id="SVGID_2" gradientUnits="userSpaceOnUse" x1="374.5017" y1="-120.8602" x2="374.5735" y2="-120.9282" gradientTransform="matrix(1849.2671 0 0 -1853.3918 -692454.3125 -223898.9375)">
	<stop offset="0" style="stop-color:#FFE052"/>
	<stop offset="1" style="stop-color:#FFC331"/>
</linearGradient>
<path class="st1" d="M125.9,249.3c63.5,0,59.5-27.5,59.5-27.5
	l-0.1-28.5h-60.6v-8.6h84.6c0,0,40.6,4.6,40.6-59.4c0-64-35.4-61.8-35.4-61.8h-21.2v29.7c0,0,1.1,35.4-34.9,35.4H98.4
	c0,0-33.7-0.5-33.7,32.6v54.8C64.7,216.2,59.6,249.3,125.9,249.3L125.9,249.3z M159.3,230.2c-6,0-10.9-4.9-10.9-10.9c0,0,0,0,0,0
	c0-6,4.9-10.9,10.9-10.9c0,0,0,0,0,0c6,0,10.9,4.9,10.9,10.9c0,0,0,0,0,0C170.2,225.3,165.3,230.2,159.3,230.2
	C159.3,230.2,159.3,230.2,159.3,230.2L159.3,230.2z"/>
</svg>
